# xmcd
#
# Track frame offsets:
#	150
#	15185
#	24530
#	42386
#	55113
#
# Disc length: 947 seconds
# Revision: 0
# Processed by: cddbd v1.5.2PL0 Copyright (c) Steve Scherf et al.
# Submitted via: dBpowerAMP V12.0
#
DISCID=3003b105
DTITLE=The Horse You Rode In On - As If You Didn't Know
DYEAR=2008
DGENRE=Country
TTITLE0=As If You Didn't Know
TTITLE1=Mine Just For A While
TTITLE2=Sent To Bed
TTITLE3=50/50
TTITLE4=Bulletproof
EXTD=
EXTT0=
EXTT1=
EXTT2=
EXTT3=
EXTT4=
PLAYORDER=
